<svg xmlns="http://www.w3.org/2000/svg" viewBox="0 0 500 500"><g id="freepik--background-simple--inject-146"><path d="M254.56,459.43s79.43-2,133.08-67.9,58.43-157.81,64.27-232.17S416.27,27.54,352.73,18.46,269.89,66.09,197.12,96.4s-96.55,27.38-141.81,92.32S36.3,356,112,410,254.56,459.43,254.56,459.43Z" style="fill:#92E3A9"></path><path d="M254.56,459.43s79.43-2,133.08-67.9,58.43-157.81,64.27-232.17S416.27,27.54,352.73,18.46,269.89,66.09,197.12,96.4s-96.55,27.38-141.81,92.32S36.3,356,112,410,254.56,459.43,254.56,459.43Z" style="fill:#fff;opacity:0.7000000000000001"></path></g><g id="freepik--Emoticons--inject-146"><circle cx="369.59" cy="248.98" r="23.24" transform="translate(67.16 576.28) rotate(-81.23)" style="fill:none;stroke:#263238;stroke-linecap:round;stroke-miterlimit:10"></circle><path d="M364.36,246.15c0,1.91-.77,3.45-1.72,3.45s-1.72-1.54-1.72-3.45.77-3.44,1.72-3.44S364.36,244.25,364.36,246.15Z" style="fill:#263238"></path><path d="M376.42,246.15c0,1.91-.77,3.45-1.72,3.45s-1.72-1.54-1.72-3.45.77-3.44,1.72-3.44S376.42,244.25,376.42,246.15Z" style="fill:#263238"></path><line x1="357.82" y1="237.19" x2="367.12" y2="242.36" style="fill:none;stroke:#263238;stroke-linecap:round;stroke-miterlimit:10;stroke-width:2px"></line><line x1="378.15" y1="235.82" x2="370.57" y2="240.3" style="fill:none;stroke:#263238;stroke-linecap:round;stroke-miterlimit:10;stroke-width:2px"></line><path d="M356.78,259.94s2.41-5.17,11.72-5.17,12.75,5.17,12.75,5.17" style="fill:none;stroke:#263238;stroke-linecap:round;stroke-miterlimit:10"></path><circle cx="390.23" cy="410.84" r="14.93" style="fill:none;stroke:#263238;stroke-linecap:round;stroke-miterlimit:10"></circle><path d="M386.87,409c0,1.22-.49,2.21-1.1,2.21s-1.11-1-1.11-2.21.49-2.22,1.11-2.22S386.87,407.8,386.87,409Z" style="fill:#263238"></path><ellipse cx="393.52" cy="409.03" rx="1.11" ry="2.21" style="fill:#263238"></ellipse><line x1="382.66" y1="403.27" x2="388.65" y2="406.59" style="fill:none;stroke:#263238;stroke-linecap:round;stroke-miterlimit:10;stroke-width:2px"></line><line x1="395.73" y1="402.38" x2="390.86" y2="405.26" style="fill:none;stroke:#263238;stroke-linecap:round;stroke-miterlimit:10;stroke-width:2px"></line><path d="M382,417.89s1.55-3.33,7.53-3.33,8.2,3.33,8.2,3.33" style="fill:none;stroke:#263238;stroke-linecap:round;stroke-miterlimit:10"></path><circle cx="94.38" cy="234.32" r="16.25" style="fill:none;stroke:#263238;stroke-linecap:round;stroke-miterlimit:10"></circle><path d="M90.72,232.34c0,1.33-.54,2.41-1.21,2.41s-1.2-1.08-1.2-2.41.54-2.41,1.2-2.41S90.72,231,90.72,232.34Z" style="fill:#263238"></path><path d="M99.16,232.34c0,1.33-.54,2.41-1.21,2.41s-1.2-1.08-1.2-2.41.54-2.41,1.2-2.41S99.16,231,99.16,232.34Z" style="fill:#263238"></path><line x1="86.14" y1="226.08" x2="92.65" y2="229.69" style="fill:none;stroke:#263238;stroke-linecap:round;stroke-miterlimit:10;stroke-width:2px"></line><line x1="100.36" y1="225.11" x2="95.06" y2="228.25" style="fill:none;stroke:#263238;stroke-linecap:round;stroke-miterlimit:10;stroke-width:2px"></line><path d="M85.42,242s1.68-3.62,8.19-3.62,8.92,3.62,8.92,3.62" style="fill:none;stroke:#263238;stroke-linecap:round;stroke-miterlimit:10"></path><circle cx="127.54" cy="305.84" r="23.24" style="fill:none;stroke:#263238;stroke-linecap:round;stroke-miterlimit:10"></circle><ellipse cx="127.37" cy="317.11" rx="9.45" ry="1.6" style="fill:#263238"></ellipse><path d="M110.54,302.06s3.85,4.48,13.78,5.44" style="fill:none;stroke:#263238;stroke-linecap:round;stroke-miterlimit:10;stroke-width:2px"></path><path d="M144.51,302.06s-3.85,4.48-13.78,5.44" style="fill:none;stroke:#263238;stroke-linecap:round;stroke-miterlimit:10;stroke-width:2px"></path><path d="M117.81,307c0,1-.6,1.76-1.32,1.76a1.83,1.83,0,0,1,0-3.52C117.21,305.24,117.81,306,117.81,307Z" style="fill:#263238"></path><path d="M140,307c0,1-.59,1.76-1.32,1.76s-1.32-.79-1.32-1.76.59-1.76,1.32-1.76S140,306,140,307Z" style="fill:#263238"></path><circle cx="68.07" cy="414.3" r="14.04" style="fill:none;stroke:#263238;stroke-linecap:round;stroke-miterlimit:10"></circle><ellipse cx="67.96" cy="421.11" rx="5.71" ry="0.97" style="fill:#263238"></ellipse><path d="M57.8,412s2.32,2.71,8.32,3.29" style="fill:none;stroke:#263238;stroke-linecap:round;stroke-miterlimit:10;stroke-width:2px"></path><path d="M78.32,412S76,414.72,70,415.3" style="fill:none;stroke:#263238;stroke-linecap:round;stroke-miterlimit:10;stroke-width:2px"></path><ellipse cx="61.39" cy="415" rx="0.8" ry="1.06" style="fill:#263238"></ellipse><ellipse cx="74.8" cy="415" rx="0.8" ry="1.06" style="fill:#263238"></ellipse><circle cx="324.27" cy="367.36" r="14.04" style="fill:none;stroke:#263238;stroke-linecap:round;stroke-miterlimit:10"></circle><ellipse cx="324.16" cy="374.18" rx="5.71" ry="0.97" style="fill:#263238"></ellipse><path d="M314,365.08s2.32,2.71,8.32,3.29" style="fill:none;stroke:#263238;stroke-linecap:round;stroke-miterlimit:10;stroke-width:2px"></path><path d="M334.52,365.08s-2.32,2.71-8.32,3.29" style="fill:none;stroke:#263238;stroke-linecap:round;stroke-miterlimit:10;stroke-width:2px"></path><path d="M318.39,368.06c0,.59-.36,1.07-.8,1.07s-.8-.48-.8-1.07.36-1.06.8-1.06S318.39,367.48,318.39,368.06Z" style="fill:#263238"></path><path d="M331.8,368.06c0,.59-.36,1.07-.8,1.07s-.8-.48-.8-1.07.36-1.06.8-1.06S331.8,367.48,331.8,368.06Z" style="fill:#263238"></path><circle cx="409.68" cy="159.21" r="14.04" style="fill:none;stroke:#263238;stroke-linecap:round;stroke-miterlimit:10"></circle><ellipse cx="409.58" cy="166.02" rx="5.71" ry="0.97" style="fill:#263238"></ellipse><path d="M399.41,156.92s2.32,2.71,8.33,3.29" style="fill:none;stroke:#263238;stroke-linecap:round;stroke-miterlimit:10;stroke-width:2px"></path><path d="M419.94,156.92s-2.33,2.71-8.33,3.29" style="fill:none;stroke:#263238;stroke-linecap:round;stroke-miterlimit:10;stroke-width:2px"></path><path d="M403.8,159.91c0,.58-.36,1.06-.8,1.06s-.8-.48-.8-1.06.36-1.07.8-1.07S403.8,159.32,403.8,159.91Z" style="fill:#263238"></path><path d="M417.21,159.91c0,.58-.36,1.06-.8,1.06s-.79-.48-.79-1.06.35-1.07.79-1.07S417.21,159.32,417.21,159.91Z" style="fill:#263238"></path><circle cx="86.21" cy="112.37" r="14.04" style="fill:none;stroke:#263238;stroke-linecap:round;stroke-miterlimit:10"></circle><ellipse cx="86.1" cy="119.18" rx="5.71" ry="0.97" style="fill:#263238"></ellipse><path d="M75.94,110.08s2.32,2.71,8.33,3.29" style="fill:none;stroke:#263238;stroke-linecap:round;stroke-miterlimit:10;stroke-width:2px"></path><path d="M96.46,110.08s-2.32,2.71-8.32,3.29" style="fill:none;stroke:#263238;stroke-linecap:round;stroke-miterlimit:10;stroke-width:2px"></path><ellipse cx="79.53" cy="113.06" rx="0.8" ry="1.06" style="fill:#263238"></ellipse><ellipse cx="92.94" cy="113.06" rx="0.8" ry="1.06" style="fill:#263238"></ellipse><circle cx="360.34" cy="89.23" r="15.14" style="fill:none;stroke:#263238;stroke-linecap:round;stroke-miterlimit:10"></circle><path d="M366.39,96.58c0,.58-2.76,1-6.16,1s-6.16-.46-6.16-1,2.75-1,6.16-1S366.39,96,366.39,96.58Z" style="fill:#263238"></path><path d="M349.26,86.77s2.51,2.92,9,3.55" style="fill:none;stroke:#263238;stroke-linecap:round;stroke-miterlimit:10;stroke-width:2px"></path><path d="M371.4,86.77s-2.51,2.92-9,3.55" style="fill:none;stroke:#263238;stroke-linecap:round;stroke-miterlimit:10;stroke-width:2px"></path><path d="M354,90c0,.63-.39,1.15-.87,1.15s-.86-.52-.86-1.15.39-1.15.86-1.15S354,89.35,354,90Z" style="fill:#263238"></path><path d="M368.46,90c0,.63-.39,1.15-.86,1.15s-.86-.52-.86-1.15.38-1.15.86-1.15S368.46,89.35,368.46,90Z" style="fill:#263238"></path></g><g id="freepik--Character--inject-146"><ellipse cx="259.7" cy="461.5" rx="69" ry="20.5" style="fill:#263238"></ellipse><path d="M245.91,277l12.67,71.67a23.75,23.75,0,0,0-1.33,5.33v3l-10,36.67,15.66,14s29.67-50.34,31.67-57.67,3.33-38.67,3.33-38.67l-1.66-63.66L295.58,233s-35.33,4.33-55.33,5a295.62,295.62,0,0,1-31.67-.33l-2.33-1a6.85,6.85,0,0,0-.67,7.33" style="fill:#525252;stroke:#263238;stroke-linecap:round;stroke-linejoin:round"></path><path d="M253.25,310.58l1.86,8.55c4.47-9.4,15.47-33.95,16.27-36.75S257.62,303.39,253.25,310.58Z" style="fill:#263238;stroke:#263238;stroke-linecap:round;stroke-linejoin:round"></path><path d="M297.91,311.33l-1.4-53.55c-13.67,25.33-33.11,55.57-40.26,66.54l2.33,24.35a23.75,23.75,0,0,0-1.33,5.33v3l-10,36.67,15.66,14s29.67-50.34,31.67-57.67S297.91,311.33,297.91,311.33Z" style="fill:#263238;stroke:#263238;stroke-linecap:round;stroke-linejoin:round"></path><path d="M258.25,413.67s-1.34,8.33-1.34,10.66,6,11.34,8.34,13.34,8,4.33,9.33,7-1,9.33-1.67,10.33-7,3-13.33.33-12.67-11.66-18-17.33-13.33-13-12.67-18.33,15.34-17.34,15.34-17.34S255.25,413.33,258.25,413.67Z" style="fill:#263238;stroke:#263238;stroke-linecap:round;stroke-linejoin:round"></path><path d="M255.44,415s-1.76,5.87-2.93,9.39,3.81,6.75,5.28,7.63,2.64,0,1.47-2.64-2.35-5-2.35-5l1.34-10.66Z" style="fill:#949494;stroke:#263238;stroke-linecap:round;stroke-linejoin:round"></path><path d="M272.91,455c.67-1,3-7.67,1.67-10.33-.84-1.69-3.43-3.25-5.81-4.67-2.83.39-6.61,1.23-8.19,3-2.67,3-4.67,5.33-4.67,5.33s-17.68-14.55-26.4-30.45a5.89,5.89,0,0,0-.6,1.79c-.66,5.33,7.34,12.66,12.67,18.33s11.67,14.67,18,17.33S272.25,456,272.91,455Z" style="fill:#949494;stroke:#263238;stroke-linecap:round;stroke-linejoin:round"></path><path d="M247.12,389c1.69,1.5,3,4.8,4.28,6.08,4.18,4.26,10.24,6.17,16,6.88,1.87.23,2.33,1.67,1.33,4.34s-5.18,9.34-7.85,10.34-10.33-3.67-13.33-7-9.33-10.34-8.67-12.67,3.21-7,5.23-8.32A2.23,2.23,0,0,1,247.12,389Z" style="fill:#949494;stroke:#263238;stroke-linecap:round;stroke-linejoin:round"></path><path d="M219.58,432.67s-4.67,17.33-7.33,23-7.67,12.66-8,16.66,2.33,7.67,2.33,7.67,3.33,3,13.67,4.33,21-2,23-4,2.66-5.33,2.66-7.66-2-22-2.33-26.34-.33-14-.33-14Z" style="fill:#263238;stroke:#263238;stroke-linecap:round;stroke-linejoin:round"></path><path d="M245.91,472.77c-4.28,3.6-11.1,7.75-19.66,7.56a47.18,47.18,0,0,1-22-6.38,14,14,0,0,0,2.31,6.05s3.33,3,13.67,4.33,21-2,23-4S245.89,475.1,245.91,472.77Z" style="fill:#fff;stroke:#263238;stroke-linecap:round;stroke-linejoin:round"></path><path d="M245.91,472.77h0s-3.66-5.77-20.33-8.44a36.45,36.45,0,0,0-19.21,2.17,17.62,17.62,0,0,0-2.12,5.83c-.34,4,2.33,7.67,2.33,7.67s3.33,3,13.67,4.33,21-2,23-4S245.89,475.1,245.91,472.77Z" style="fill:#fff;stroke:#263238;stroke-linecap:round;stroke-linejoin:round"></path><path d="M226.25,435.67s-1,10-3.34,15,.67,5.33,3.67,5.33,6-1.33,6-4V435.33Z" style="fill:#fff;stroke:#263238;stroke-linecap:round;stroke-linejoin:round"></path><path d="M214.58,416.33s-2.33,2.34-2,4.67.33,10,2,13,11.74,5.54,18.07,5.54,11.6-4.87,13.26-7.87.67-7.34,0-11.34-3.33-4.66-7.33-5.66S222.25,413.33,214.58,416.33Z" style="fill:#fff;stroke:#263238;stroke-linecap:round;stroke-linejoin:round"></path><path d="M260.58,268.33l-9,11.67-3.33,3.33a92.54,92.54,0,0,0-2.34,11c-.33,3.67-7.33,64.34-7.33,64.34s2.67,18.66,3.67,31,1,27.33,0,31-9.67,5.33-15.67,4.66-11.67-3.33-12-6.66-16.41-46-17.33-52.67c-7.25-52-2.75-77.13-2-93a321.22,321.22,0,0,1,3.66-36.33,234.54,234.54,0,0,0,25.34,2c14,.33,42.33-1.34,42.33-1.34" style="fill:#525252;stroke:#263238;stroke-linecap:round;stroke-linejoin:round"></path><path d="M220.69,255.38c7,4.85,19.07,14.05,22.56,21.95" style="fill:none;stroke:#263238;stroke-linecap:round;stroke-linejoin:round"></path><path d="M215.58,252s.86.53,2.27,1.46" style="fill:none;stroke:#263238;stroke-linecap:round;stroke-linejoin:round"></path><path d="M244.08,272.14a26.65,26.65,0,0,1,1.5,3.19" style="fill:none;stroke:#263238;stroke-linecap:round;stroke-linejoin:round"></path><path d="M234.58,259.33a87.37,87.37,0,0,1,6.56,8.17" style="fill:none;stroke:#263238;stroke-linecap:round;stroke-linejoin:round"></path><path d="M238.55,361.7s-1.3,9.63-6.64,17" style="fill:none;stroke:#263238;stroke-linecap:round;stroke-linejoin:round"></path><path d="M237.25,373a96,96,0,0,1-7.34,14" style="fill:none;stroke:#263238;stroke-linecap:round;stroke-linejoin:round"></path><path d="M219.91,90.67s-36.43,30.5-46.09,41.5-9.67,12.33-8,17,26.76,47.83,28.43,53.16,3.33,28,3.33,33,4,8,8,8.67,37.67,4.67,58,1,31.67-6,33-10.33S298.25,220,298.25,218s4.33-65.67,4.33-65.67l34-10.33s-9.67-48-11.33-52-35.67-6.88-48.67-7.33-44.67,6.33-49,6.66A40.82,40.82,0,0,0,219.91,90.67Z" style="fill:#92E3A9;stroke:#263238;stroke-linecap:round;stroke-linejoin:round"></path><path d="M241.66,238.92c9.35-3.7,23-9.76,35.12-17.62" style="fill:none;stroke:#263238;stroke-linecap:round;stroke-linejoin:round"></path><path d="M230.47,243s2.23-.71,5.91-2.07" style="fill:none;stroke:#263238;stroke-linecap:round;stroke-linejoin:round"></path><path d="M290.08,216.8c.87-.73,1.75-1.48,2.62-2.25" style="fill:none;stroke:#263238;stroke-linecap:round;stroke-linejoin:round"></path><path d="M261.34,235.77a143.64,143.64,0,0,0,24.21-15.33" style="fill:none;stroke:#263238;stroke-linecap:round;stroke-linejoin:round"></path><line x1="302.25" y1="150.33" x2="290.25" y2="123.33" style="fill:none;stroke:#263238;stroke-linecap:round;stroke-linejoin:round"></line><path d="M211.91,152.33a104.63,104.63,0,0,0,0-15.33" style="fill:none;stroke:#263238;stroke-linecap:round;stroke-linejoin:round"></path><path d="M296.58,137s-11.33-3.67-14.33-10.67" style="fill:none;stroke:#263238;stroke-linecap:round;stroke-linejoin:round"></path><path d="M312.91,184.33l-.3,1.34c-1.23,5.47-5.83,26.17-6.7,33.66-1,8.67-8.66,32.67-8.66,32.67s-14,.33-16.34.67-3.33,5.66-3.33,8-2.33,7.66-2.33,9.66,4,3.67,4,3.67-.34,4,.66,4.67,4,3,6.34,1.66a33.91,33.91,0,0,0,4.33-3s6.67,1,8,1,3.67-1.33,5.33-1.33,3.34,1,4.67-1,2.67-8.33,3-10.33,28.33-58,32-66.67,4-12,4-15a31.61,31.61,0,0,0-1.33-7.33l-34,5.33Z" style="fill:#fff;stroke:#263238;stroke-linecap:round;stroke-linejoin:round"></path><path d="M304.91,174s-8.33-20.33-6-22.67,25.34-12.66,35.34-12.66,10.33,1.66,10.33,4S341.25,167,341.25,167,321.25,165.67,304.91,174Z" style="fill:#263238;stroke:#263238;stroke-linecap:round;stroke-linejoin:round"></path><path d="M219.25,113.67s-2.34,15.33-3,23.33,5,20,5,20,8.33-8.33,11.33-10.67,11-3.33,11-3.33,6.33,1,9,2.67,10.33,9.66,10.33,9.66a59.66,59.66,0,0,0,3.34-24c-.88-13.68-5-22.66-5-22.66Z" style="fill:#263238;stroke:#263238;stroke-linecap:round;stroke-linejoin:round"></path><polygon points="236.25 142.33 244.25 158.33 248.58 142.67 236.25 142.33" style="fill:#fff;stroke:#263238;stroke-linecap:round;stroke-linejoin:round"></polygon><path d="M215.25,87.58a3.94,3.94,0,0,0-4.58,3.54c-.7,4.2,4,13.08,4.9,14.94s2.11,1.41,2.34-.46.23-13.32.23-13.32S216.57,87.55,215.25,87.58Z" style="fill:#fff;stroke:#263238;stroke-linecap:round;stroke-linejoin:round"></path><path d="M270.16,87.54a3.94,3.94,0,0,1,4.26,3.92c.34,4.25-5.08,12.69-6.17,14.47s-2.22,1.21-2.29-.67.91-13.28.91-13.28S268.85,87.4,270.16,87.54Z" style="fill:#fff;stroke:#263238;stroke-linecap:round;stroke-linejoin:round"></path><path d="M217.4,96.17s-1.07,20.41.36,22.92,7.16,20,8.23,21.48,10.25,7.75,26.22,3.16a6.74,6.74,0,0,0,4.35-3.77c2.67-6.09,8.81-20.34,8.81-22.31,0-2.5,2.51-26.49,2.51-26.49s.72-13.24-3.94-16.47-38.3-2.5-43,.36S217.4,96.17,217.4,96.17Z" style="fill:#fff;stroke:#263238;stroke-linecap:round;stroke-linejoin:round"></path><path d="M260.7,108.64c-.09,1.53-8.63,2.27-19.07,1.66s-18.84-2.34-18.75-3.86,8.63-2.28,19.07-1.67S260.79,107.11,260.7,108.64Z" style="fill:#dedede"></path><path d="M256.07,120.16c-1.08-4.3-7.16-7.52-7.16-7.52s1.07,2.87,0,4.3a9.85,9.85,0,0,1-7.16,3.58c-3.23,0-7.16-3.58-7.88-5s1.79-2.87,1.79-2.87-7.16,2.51-7.52,6.8" style="fill:none;stroke:#263238;stroke-linecap:round;stroke-linejoin:round"></path><path d="M245.86,101.19S253,93,261.26,94.74" style="fill:none;stroke:#263238;stroke-linecap:round;stroke-linejoin:round;stroke-width:2px"></path><path d="M235.3,100.83S229.57,94,224.92,94" style="fill:none;stroke:#263238;stroke-linecap:round;stroke-linejoin:round;stroke-width:2px"></path><ellipse cx="253.38" cy="103.33" rx="1.61" ry="2.51" style="fill:#263238"></ellipse><ellipse cx="231.19" cy="103.33" rx="1.61" ry="2.51" style="fill:#263238"></ellipse><polyline points="242.1 95.46 241.75 101.55 243.18 102.62" style="fill:none;stroke:#263238;stroke-linecap:round;stroke-linejoin:round"></polyline><line x1="238.52" y1="95.46" x2="238.52" y2="101.54" style="fill:none;stroke:#263238;stroke-linecap:round;stroke-linejoin:round"></line><path d="M254.53,129a10.36,10.36,0,0,0-6.83-3.84c-3.5-.49-9.66-2-14.25-.42-7.52,2.5-8.53,8.28-5.67,11.86s8.11-3.53,14.91-1.74,8,5,11.23.66C256.07,132.69,256,130.94,254.53,129Z" style="fill:#fff;stroke:#263238;stroke-linecap:round;stroke-linejoin:round"></path><path d="M226.85,130.49a42.19,42.19,0,0,0,9.24.44" style="fill:none;stroke:#263238;stroke-linecap:round;stroke-linejoin:round"></path><path d="M255.16,130.49a76.12,76.12,0,0,1-8.65.44" style="fill:none;stroke:#263238;stroke-linecap:round;stroke-linejoin:round"></path><path d="M225.62,105.36a6.75,6.75,0,0,1,3.73.94" style="fill:none;stroke:#263238;stroke-linecap:round;stroke-linejoin:round"></path><path d="M254.11,106.76s1.87-1.16,3-.93" style="fill:none;stroke:#263238;stroke-linecap:round;stroke-linejoin:round"></path><path d="M223.49,81.5l5-.72s-5.73,7.88,1.07,10,27.21-8.59,29-11.09-.36,3.22,1.43,3.93,3.58-1.43,3.58-1.43-2.5,4.66,0,6.8,4.3,2.15,4.3,2.15l-.72,9.31,3.58-13.25s2.51-1.79,2.87-6.8-1.43-6.8-1.08-8.59,2.87-1.79,3.23-5.73-3.94-11.45-7.52-12.89-9.67-1.07-9.67-1.07a46.5,46.5,0,0,0-21.48-6.44c-12.89-.72-23.63,8.23-22.55,11.81s2.86,3.94,2.86,3.94S202.72,70,205.23,74.34s11.46,5.72,11.46,5.72-2.87,4.66-1.44,7.52,2.15,12.53,2.15,12.53-.36-2.5,2.51-7.16S224.2,85.08,223.49,81.5Z" style="fill:#263238;stroke:#263238;stroke-linecap:round;stroke-linejoin:round"></path><path d="M228.58,187l75-16.67s6.67-17.33,8-19.33,6-4,8.33-5.33,5.34-4.67,6.67-6.34,2.67-2.66,4,0a7.37,7.37,0,0,1,0,7c-1,1.67-4.15,4-4.15,4s11.15-5.3,12.48-5.3,3.34.33,4,2.33.67,2.34-.33,4a7.69,7.69,0,0,1-2,2.34s3,0,4.33,1a5.84,5.84,0,0,1,2,4.33c0,1.33-.74,3.53-1.74,4.2a3.62,3.62,0,0,0-1.26,2.13l4.67.67s2,4,1.33,6-3.66,3-3.66,3,3.33,1.67,1.66,4-4,2-5,2-33.33,6-33.33,6l-83.67,41.33S224.91,197.67,228.58,187Z" style="fill:#fff;stroke:#263238;stroke-linecap:round;stroke-linejoin:round"></path><path d="M336.26,154.9s-.61,1.85-2.15,2.15a13.28,13.28,0,0,1-3.69,0l-5.53,4" style="fill:none;stroke:#263238;stroke-linecap:round;stroke-linejoin:round"></path><path d="M340,166.27a2.54,2.54,0,0,1-2.15,1.85,7.27,7.27,0,0,1-4-.93L328.27,170" style="fill:none;stroke:#263238;stroke-linecap:round;stroke-linejoin:round"></path><path d="M326.43,150.3s-10.75,2.45-11.06,3.37a9.16,9.16,0,0,1-.92,1.85" style="fill:none;stroke:#263238;stroke-linecap:round;stroke-linejoin:round"></path><path d="M205.91,137.33l21,50.34-23,36.66s-30.43-38.83-37.76-58.16-2.33-22-2-23,11.33-9.33,11.33-9.33" style="fill:#92E3A9;stroke:#263238;stroke-linecap:round;stroke-linejoin:round"></path><path d="M224.91,182s-4,1-13,12-15,21.33-15,25,4.34,8,12.67,11.33,19.67.34,19.67-3.33-.34-28.33-.34-33a26.54,26.54,0,0,1,1-7.67S227.91,182.67,224.91,182Z" style="fill:#263238;stroke:#263238;stroke-linecap:round;stroke-linejoin:round"></path><path d="M164.92,70.94a9.4,9.4,0,0,0,.39-.92,6.8,6.8,0,0,0,2.56.51,6.73,6.73,0,0,0,5.44-2.78l17.12,4.53-15.82-8.49a6.7,6.7,0,0,0-.38-2.21,10.84,10.84,0,1,0-13.51-16.46,8.2,8.2,0,0,0-16,2.11c-.06.05-.12.08-.17.13a6.67,6.67,0,0,0-1.9-.28,6.74,6.74,0,0,0-3.13,12.71,13.87,13.87,0,0,0,1.34,4.58A5.84,5.84,0,1,0,149,72.72a9.32,9.32,0,0,0,14.27.66L177,72.87Z" style="fill:#d4d4d4"></path><path d="M317.06,66.85a9.46,9.46,0,0,1-.4-.92,6.73,6.73,0,0,1-8-2.27l-17.12,4.53,15.82-8.5a7,7,0,0,1,.37-2.2A10.84,10.84,0,1,1,321.26,41a8.2,8.2,0,0,1,16,2.12l.17.12a7,7,0,0,1,1.9-.27,6.73,6.73,0,0,1,3.13,12.7,14,14,0,0,1-1.34,4.59A5.84,5.84,0,1,1,333,68.63a9.33,9.33,0,0,1-14.27.65L305,68.77Z" style="fill:#d4d4d4"></path></g></svg>
